<?xml version="1.0" encoding="utf-8"?>
<!-- Generator: Adobe Illustrator 16.0.0, SVG Export Plug-In . SVG Version: 6.00 Build 0)  -->
<!DOCTYPE svg PUBLIC "-//W3C//DTD SVG 1.1//EN" "http://www.w3.org/Graphics/SVG/1.1/DTD/svg11.dtd">
<svg version="1.1" id="Layer_1" xmlns="http://www.w3.org/2000/svg" xmlns:xlink="http://www.w3.org/1999/xlink" x="0px" y="0px"
	 width="271.486px" height="346.482px" viewBox="0 0 271.486 346.482" enable-background="new 0 0 271.486 346.482"
	 xml:space="preserve">
<polygon fill="#9ED1F1" points="186.933,267.038 188.42,255.147 189.906,267.038 "/>
<polygon fill="#9ED1F1" points="186.933,267.038 188.42,255.147 189.906,267.038 "/>
<polygon fill="#9ED1F1" points="221.117,267.038 222.604,259.606 224.091,267.038 "/>
<polygon fill="#9ED1F1" points="221.117,267.038 222.604,259.606 224.091,267.038 "/>
<path fill="#20557D" d="M173.186,268.563c0,0,0.27-0.059,0.775-0.16c0.511-0.082,1.314-0.076,2.18-0.328
	c0.917-0.307,2.032-0.678,3.312-1.105c1.338-0.365,2.744-0.795,4.483-1.018c0.867-0.072,1.794-0.182,2.851,0.121
	c0.852,0.242,1.733,0.494,2.638,0.754c1.787,0.463,3.688,0.818,5.591,0.818c1.945,0.053,3.621-0.664,5.854-1.359
	c1.095-0.324,2.274-0.594,3.463-0.641l0.892-0.057c0.494,0.01,0.609,0.043,0.934,0.063c0.548,0.049,1.073,0.061,1.714,0.232
	c2.531,0.58,4.212,1.424,6.372,1.742c0.948,0.152,1.953,0.236,2.83,0.143c0.784-0.057,1.869-0.457,2.834-0.764
	c0.964-0.326,1.976-0.615,2.99-0.834c0.501-0.113,0.995-0.232,1.481-0.346c0.648-0.111,0.972-0.125,1.544-0.133
	c2.2,0.057,3.889,0.635,5.503,1.168c0.761,0.27,1.607,0.576,2.17,0.809c0.728,0.184,1.42,0.357,2.07,0.523
	c1.246,0.068,2.383,0.121,3.338-0.021c0.957-0.063,1.701-0.199,2.212-0.27c0.514-0.078,0.787-0.119,0.787-0.119
	s-0.262,0.086-0.754,0.244c-0.496,0.148-1.208,0.441-2.172,0.609c-0.938,0.258-2.137,0.373-3.581,0.438
	c-0.669-0.08-1.381-0.168-2.13-0.26c-0.745-0.205-1.527-0.426-2.343-0.648c-1.536-0.41-3.352-0.789-4.949-0.713
	c-0.369,0.018-1.01,0.113-1.308,0.207c-0.446,0.143-0.902,0.289-1.358,0.434c-0.908,0.285-1.854,0.551-2.827,0.936
	c-0.993,0.342-1.858,0.758-3.196,0.971c-1.222,0.189-2.395,0.111-3.576-0.074c-2.155-0.289-4.543-1.277-6.313-1.65
	c-0.421-0.152-1.002-0.18-1.546-0.236l-0.712-0.063l-0.751,0.043c-0.501,0.002-0.998,0.066-1.492,0.174
	c-0.494,0.068-0.982,0.191-1.475,0.334c-1.887,0.584-4.293,1.395-6.526,1.246c-2.231-0.057-4.255-0.645-6.084-1.268
	c-0.894-0.33-1.764-0.646-2.604-0.959c-0.653-0.258-1.489-0.256-2.256-0.24c-1.553,0.104-3.105,0.354-4.392,0.539
	c-1.314,0.264-2.458,0.496-3.403,0.686c-1.023,0.174-1.757-0.008-2.274,0.002C173.46,268.554,173.186,268.563,173.186,268.563"/>
<path fill="#9ED1F1" d="M186.19,250.688c0-1.232,0.998-2.229,2.229-2.229s2.229,0.996,2.229,2.229c0,1.234-0.997,2.23-2.229,2.23
	S186.19,251.923,186.19,250.688"/>
<path fill="#9ED1F1" d="M186.19,250.688c0-1.232,0.998-2.229,2.229-2.229s2.229,0.996,2.229,2.229c0,1.234-0.997,2.23-2.229,2.23
	S186.19,251.923,186.19,250.688"/>
<polygon fill="#9ED1F1" points="186.933,246.972 189.861,234.341 190.648,246.972 "/>
<polygon fill="#9ED1F1" points="186.933,246.972 189.861,234.339 190.648,246.972 "/>
<polygon fill="#9ED1F1" points="192.357,250.552 202.822,258.493 190.896,254.026 "/>
<polygon fill="#9ED1F1" points="192.357,250.552 202.822,258.493 190.896,254.026 "/>
<polygon fill="#9ED1F1" points="185.342,253.806 172.51,256.28 183.804,250.362 "/>
<polygon fill="#9ED1F1" points="185.342,253.806 172.51,256.28 183.804,250.362 "/>
<path fill="#9ED1F1" d="M220.375,256.261c0-1.025,0.832-1.857,1.86-1.857c1.023,0,1.855,0.832,1.855,1.857
	c0,1.027-0.832,1.859-1.855,1.859C221.207,258.12,220.375,257.288,220.375,256.261"/>
<path fill="#9ED1F1" d="M220.375,256.261c0-1.025,0.832-1.857,1.86-1.857c1.023,0,1.855,0.832,1.855,1.857
	c0,1.027-0.832,1.859-1.855,1.859C221.207,258.12,220.375,257.288,220.375,256.261"/>
<polygon fill="#9ED1F1" points="221.117,253.661 223.462,244.001 224.091,253.661 "/>
<polygon fill="#9ED1F1" points="221.117,253.661 223.462,244.001 224.091,253.661 "/>
<polygon fill="#9ED1F1" points="225.147,255.888 232.785,261.688 224.079,258.427 "/>
<polygon fill="#9ED1F1" points="225.147,255.888 232.785,261.688 224.079,258.427 "/>
<polygon fill="#9ED1F1" points="220.025,258.267 210.658,260.071 218.902,255.753 "/>
<polygon fill="#9ED1F1" points="220.025,258.267 210.658,260.071 218.902,255.753 "/>
<polygon fill="#9ED1F1" points="191.79,296.323 196.135,296.313 196.149,305.007 191.805,305.011 "/>
<rect x="215.388" y="296.277" transform="matrix(-1 0.0012 -0.0012 -1 436.0985 600.9869)" fill="#9ED1F1" width="4.968" height="8.689"/>
<rect x="189.32" y="302.506" transform="matrix(-1 0.0017 -0.0017 -1 412.676 607.1455)" fill="#9ED1F1" width="33.523" height="2.482"/>
<polygon fill="#9ED1F1" points="207.311,296.294 209.171,296.294 209.194,309.327 207.332,309.333 "/>
<path fill="#9ED1F1" d="M187.438,292.649c0-0.711,0.572-1.287,1.286-1.291l34.052-0.057c0.712,0,1.288,0.576,1.291,1.285
	l0.002,2.393c0.003,0.709-0.574,1.289-1.286,1.289l-34.049,0.059c-0.714,0-1.291-0.574-1.291-1.285L187.438,292.649z"/>
<rect x="187.436" y="287.631" transform="matrix(-1 0.0016 -0.0016 -1 384.0225 582.407)" fill="#9ED1F1" width="8.693" height="7.447"/>
<polyline fill="#9ED1F1" points="213.509,290.077 214.492,283.411 216.135,276.413 218.473,288.569 218.475,290.067 "/>
<line fill="#9ED1F1" x1="214.754" y1="292.374" x2="215.96" y2="276.415"/>
<line fill="#9ED1F1" x1="215.969" y1="276.415" x2="217.553" y2="293.864"/>
<path fill="#9ED1F1" d="M211.655,295.665L211.655,295.665c0.26,1.16,0.201,0.596,0.203,1.693l0.203,2.387l0.603,3.281l0.807,3.779
	l1.799,2.484l3.796,1.186l3.789,0.691"/>
<rect x="211.648" y="289.451" transform="matrix(-1 0.0016 -0.0016 -1 432.4443 581.0427)" fill="#9ED1F1" width="8.691" height="2.48"/>
<polygon fill="#9ED1F1" points="202.335,291.335 224.064,291.302 224.072,296.265 202.345,296.304 "/>
<rect x="187.441" y="293.217" transform="matrix(-1 0.0017 -0.0017 -1 383.4507 588.5931)" fill="#9ED1F1" width="8.07" height="2.484"/>
<rect x="196.133" y="291.336" transform="matrix(-1 0.0016 -0.0016 -1 406.3848 587.3171)" fill="#9ED1F1" width="13.657" height="4.965"/>
<rect x="211.651" y="290.694" transform="matrix(-1 0.0018 -0.0018 -1 432.5177 583.4823)" fill="#9ED1F1" width="8.691" height="2.482"/>
<rect x="216.009" y="295.656" transform="matrix(-1 0.0022 -0.0022 -1 437.0356 598.2705)" fill="#9ED1F1" width="4.345" height="7.449"/>
<rect x="192.418" y="296.316" transform="matrix(-1 0.0016 -0.0016 -1 389.0327 599.157)" fill="#9ED1F1" width="3.726" height="6.83"/>
<path fill="#20557D" d="M179.383,301.12c0,0,0.858-0.213,2.366-0.529c0.754-0.15,1.672-0.338,2.726-0.553
	c0.524-0.109,1.085-0.223,1.674-0.34c0.681-0.109,1.243-0.166,1.929-0.23c1.423-0.055,2.889,0.045,4.365,0.158
	c1.518,0.064,3.201,0.369,4.69,0.434c1.513,0.102,2.994-0.299,4.723-0.66c1.669-0.402,3.728-0.639,5.548-0.439
	c3.68,0.393,6.979,1.416,9.97,0.984c1.478-0.27,3.205-0.615,4.751-0.695c1.574-0.119,3.111,0.014,4.475,0.373
	c1.279,0.33,2.439,0.754,3.441,0.988c1.017,0.246,1.925,0.35,2.684,0.371c0.759,0.02,1.361,0.021,1.772-0.014
	c0.414-0.021,0.634-0.031,0.634-0.031s-0.213,0.055-0.615,0.158c-0.399,0.111-0.992,0.271-1.771,0.357
	c-0.777,0.094-1.744,0.135-2.846,0.039c-1.118-0.082-2.29-0.314-3.591-0.516c-1.22-0.176-2.571-0.143-4.001,0.064
	c-1.464,0.199-2.837,0.619-4.588,1.002c-1.773,0.316-3.631,0.289-5.395,0.035c-1.769-0.232-3.473-0.57-5.137-0.709
	c-1.683-0.191-3.157-0.045-4.864,0.32c-1.646,0.34-3.538,0.686-5.328,0.494c-1.806-0.154-3.24-0.582-4.736-0.764
	c-1.525-0.227-2.894-0.463-4.111-0.568c-1.313-0.033-2.448,0.018-3.557,0.076c-1.076,0.053-2.007,0.094-2.782,0.127
	C180.268,301.12,179.383,301.12,179.383,301.12"/>
<path fill="#D0D2D3" d="M212.343,151.875c6.395,9.615,3.574,22.733-6.302,29.299l-1.358,0.725l1.86-0.09l17.191-1.488l0.345-0.656
	c1.919-4.938,2.057-10.503,0.369-15.528c-1.636-4.865-4.983-9.118-9.517-11.583c-1.012-0.551-1.782-0.953-3.045-1.251l0.596,0.785"
	/>
<line fill="none" stroke="#20557D" stroke-width="0.5" stroke-miterlimit="10" x1="198.9" y1="183.344" x2="233.378" y2="182.03"/>
<path fill="#20557D" d="M230.308,182.174c-5.15,5.974-17.99,6.388-30.442,0.973"/>
<path fill="#9ED1F1" d="M192.783,163.855c0-0.428,0.348-0.775,0.777-0.775c0.431,0,0.778,0.348,0.778,0.775
	c0,0.43-0.348,0.777-0.778,0.777C193.131,164.632,192.783,164.285,192.783,163.855 M202.363,172.657l-6.38-6.06l0.319-0.318
	L202.363,172.657z M193.561,176.301l-0.222-8.792h0.446L193.561,176.301z M184.758,172.657l6.063-6.378l0.316,0.318L184.758,172.657
	z M181.113,163.855l8.796-0.223v0.443L181.113,163.855z M184.758,155.052l6.38,6.063l-0.316,0.316L184.758,155.052z
	 M193.561,151.407l0.225,8.797h-0.446L193.561,151.407z M202.363,155.052l-6.061,6.379l-0.319-0.316L202.363,155.052z
	 M206.011,163.855l-8.798,0.221v-0.443L206.011,163.855z"/>
<path fill="#9ED1F1" d="M192.975,164.095c-0.13-0.324,0.026-0.695,0.348-0.824c0.323-0.133,0.692,0.021,0.825,0.342
	c0.13,0.326-0.024,0.695-0.346,0.828C193.476,164.574,193.109,164.417,192.975,164.095 M202.889,167.769l-6.661-2.597l0.139-0.338
	L202.889,167.769z M197.388,173.215l-2.872-6.546l0.336-0.139L197.388,173.215z M189.646,173.182l2.601-6.662l0.335,0.137
	L189.646,173.182z M184.2,167.683l6.546-2.873l0.139,0.334L184.2,167.683z M184.236,159.941l6.66,2.6l-0.142,0.332L184.236,159.941z
	 M189.734,154.491l2.874,6.547l-0.338,0.141L189.734,154.491z M197.476,154.527l-2.601,6.662l-0.333-0.141L197.476,154.527z
	 M202.924,160.027l-6.548,2.873l-0.137-0.336L202.924,160.027z"/>
<path fill="#9ED1F1" d="M186.638,163.855c0-3.824,3.101-6.926,6.926-6.926c3.822,0,6.921,3.102,6.921,6.926
	c0,3.824-3.099,6.925-6.921,6.925C189.738,170.78,186.638,167.679,186.638,163.855"/>
<text transform="matrix(1 0 0 1 28.6641 49.4473)"><tspan x="0" y="0" fill="#231F20" font-family="'Whitney-Book'" font-size="16.9433">F</tspan><tspan x="7.963" y="0" fill="#231F20" font-family="'Whitney-Book'" font-size="16.9433">isheries</tspan></text>
<text transform="matrix(1 0 0 1 28.6816 90.9922)"><tspan x="0" y="0" fill="#231F20" font-family="'Whitney-Book'" font-size="16.9433">C</tspan><tspan x="9.522" y="0" fill="#231F20" font-family="'Whitney-Book'" font-size="16.9433">onser</tspan><tspan x="48.965" y="0" fill="#231F20" font-family="'Whitney-Book'" font-size="16.9433">v</tspan><tspan x="56.911" y="0" fill="#231F20" font-family="'Whitney-Book'" font-size="16.9433">ation</tspan></text>
<text transform="matrix(1 0 0 1 28.6816 174.0996)"><tspan x="0" y="0" fill="#231F20" font-family="'Whitney-Book'" font-size="16.9433" letter-spacing="-2">T</tspan><tspan x="6.269" y="0" fill="#231F20" font-family="'Whitney-Book'" font-size="16.9433">ourism</tspan></text>
<text transform="matrix(1 0 0 1 28.6816 215.6602)" fill="#231F20" font-family="'Whitney-Book'" font-size="16.9433">Shipping</text>
<text transform="matrix(1 0 0 1 28.6816 298.7676)" fill="#231F20" font-family="'Whitney-Book'" font-size="16.9433">Mining</text>
<text transform="matrix(1 0 0 1 28.6816 132.5547)"><tspan x="0" y="0" fill="#231F20" font-family="'Whitney-Book'" font-size="16.9433">A</tspan><tspan x="10.318" y="0" fill="#231F20" font-family="'Whitney-Book'" font-size="16.9433">quacultu</tspan><tspan x="73.228" y="0" fill="#231F20" font-family="'Whitney-Book'" font-size="16.9433">r</tspan><tspan x="78.463" y="0" fill="#231F20" font-family="'Whitney-Book'" font-size="16.9433">e</tspan></text>
<text transform="matrix(1 0 0 1 28.6816 257.2227)"><tspan x="0" y="0" fill="#231F20" font-family="'Whitney-Book'" font-size="16.9433">Ene</tspan><tspan x="26.228" y="0" fill="#231F20" font-family="'Whitney-Book'" font-size="16.9433">r</tspan><tspan x="31.666" y="0" fill="#231F20" font-family="'Whitney-Book'" font-size="16.9433">gy</tspan></text>
<g>
	<defs>
		<path id="SVGID_1_" d="M234.706,35.057c-2.992,0.937-5.583,2.556-7.653,4.632c4.751,4.773,11.925,6.805,18.799,4.66
			c2.99-0.937,5.583-2.554,7.653-4.633l0.003-0.005c-3.468-3.485-8.235-5.509-13.23-5.509c-0.007,0-0.014,0-0.021,0
			C238.42,34.202,236.553,34.48,234.706,35.057 M222.528,47.069c0.91-2.767,2.458-5.301,4.524-7.381
			c-2.055-2.056-3.652-4.627-4.579-7.595L222.528,47.069z"/>
	</defs>
	<clipPath id="SVGID_2_">
		<use xlink:href="#SVGID_1_"  overflow="visible"/>
	</clipPath>
	<rect x="226.944" y="29.189" clip-path="url(#SVGID_2_)" fill="#9ED1F1" width="28.156" height="20.104"/>
</g>
<path fill="#20557D" d="M222.474,32.094c0.308,0.736,0.532,1.511,0.908,2.215c0.353,0.714,0.711,1.423,1.168,2.08
	c0.841,1.35,1.909,2.543,3.065,3.623c1.175,1.065,2.481,1.97,3.877,2.711c1.408,0.704,2.879,1.302,4.42,1.621
	c1.526,0.383,3.105,0.489,4.666,0.462c1.563-0.072,3.117-0.29,4.609-0.758c0.702-0.15,1.473-0.552,2.205-0.815
	c0.756-0.28,1.364-0.721,2.054-1.067c0.667-0.375,1.27-0.887,1.903-1.319c0.598-0.492,1.146-1.041,1.723-1.556c0,0-0.009,0.009,0,0
	l0.008,0.845l-1.709-1.549c-0.612-0.462-1.263-0.876-1.896-1.321c-0.652-0.407-1.366-0.711-2.049-1.074
	c-0.692-0.347-1.449-0.533-2.173-0.809c-0.728-0.284-1.508-0.341-2.264-0.526c-0.755-0.208-1.542-0.152-2.314-0.233
	c-0.777-0.099-1.551,0.018-2.331,0.066c-0.784,0.017-1.543,0.178-2.307,0.363c-0.782,0.15-1.508,0.327-2.25,0.637
	c-0.764,0.246-1.487,0.551-2.163,0.934c-0.709,0.321-1.373,0.736-2.017,1.196c-0.673,0.409-1.265,0.929-1.855,1.45
	c-0.624,0.483-1.12,1.103-1.659,1.677c-0.569,0.554-0.955,1.256-1.439,1.88c-0.463,0.642-0.792,1.367-1.191,2.05
	c-0.345,0.711-0.619,1.459-0.931,2.19c0.288-0.737,0.538-1.495,0.86-2.222c0.383-0.697,0.689-1.439,1.134-2.1
	c0.469-0.642,0.837-1.366,1.393-1.944c0.527-0.598,1.012-1.242,1.629-1.755c0.586-0.55,1.17-1.097,1.844-1.537
	c0.638-0.489,1.305-0.933,2.032-1.293c0.702-0.423,1.433-0.755,2.175-1.021c0.719-0.328,1.522-0.559,2.3-0.732
	c0.78-0.215,1.565-0.406,2.376-0.453c0.804-0.074,1.607-0.217,2.418-0.144c0.806,0.054,1.629-0.022,2.423,0.167
	c0.792,0.165,1.617,0.208,2.388,0.474c0.768,0.264,1.571,0.441,2.312,0.78c0.73,0.356,1.494,0.659,2.2,1.065
	c0.684,0.446,1.388,0.867,2.052,1.338l1.872,1.593l0.454,0.387l-0.444,0.458l-0.017,0.017c-0.631,0.535-1.236,1.099-1.887,1.598
	c-0.694,0.447-1.337,0.956-2.072,1.343c-0.745,0.353-1.476,0.815-2.229,1.068c-0.775,0.25-1.444,0.59-2.312,0.769
	c-1.574,0.441-3.215,0.617-4.841,0.641c-1.626-0.023-3.26-0.188-4.822-0.631c-1.579-0.383-3.075-1.046-4.493-1.813
	c-1.404-0.801-2.707-1.769-3.867-2.887c-1.14-1.134-2.182-2.375-2.985-3.765c-0.438-0.672-0.78-1.401-1.111-2.129
	C222.956,33.619,222.76,32.84,222.474,32.094"/>
<g>
	<defs>
		<path id="SVGID_3_" d="M161.005,36.487l0.005,0.01c2.068,2.079,4.659,3.693,7.651,4.63c6.874,2.147,14.05,0.116,18.802-4.652
			c-2.071-2.081-4.664-3.704-7.659-4.638c-1.851-0.579-3.725-0.854-5.568-0.854C169.243,30.983,164.473,33.004,161.005,36.487
			 M187.463,36.475c2.063,2.074,3.609,4.606,4.519,7.375l0.058-14.973C191.114,31.845,189.514,34.415,187.463,36.475"/>
	</defs>
	<clipPath id="SVGID_4_">
		<use xlink:href="#SVGID_3_"  overflow="visible"/>
	</clipPath>
	<rect x="159.409" y="25.97" clip-path="url(#SVGID_4_)" fill="#9ED1F1" width="28.157" height="20.104"/>
</g>
<g>
	<defs>
		<path id="SVGID_5_" d="M209.935,43.873c-3.543,1.108-6.603,3.022-9.051,5.481c5.611,5.637,14.093,8.034,22.212,5.497
			c3.536-1.102,6.598-3.014,9.039-5.47l0.007-0.008c-4.099-4.117-9.727-6.505-15.629-6.505
			C214.336,42.868,212.118,43.191,209.935,43.873 M195.547,58.068c1.072-3.268,2.896-6.264,5.337-8.714
			c-2.425-2.435-4.313-5.472-5.408-8.978L195.547,58.068z"/>
	</defs>
	<clipPath id="SVGID_6_">
		<use xlink:href="#SVGID_5_"  overflow="visible"/>
	</clipPath>
	<rect x="200.759" y="36.944" clip-path="url(#SVGID_6_)" fill="#9ED1F1" width="33.267" height="23.752"/>
</g>
<path fill="#20557D" d="M195.478,40.376c0.359,0.871,0.624,1.786,1.066,2.619c0.414,0.846,0.837,1.687,1.376,2.462
	c0.47,0.815,1.09,1.532,1.664,2.272c0.614,0.707,1.262,1.391,1.952,2.023c1.385,1.263,2.934,2.338,4.581,3.217
	c0.829,0.423,1.683,0.813,2.553,1.139c0.884,0.302,1.761,0.617,2.678,0.794c0.9,0.25,1.827,0.339,2.749,0.465
	c0.922,0.083,1.855,0.116,2.78,0.097c1.851-0.083,3.699-0.339,5.467-0.889c0.844-0.183,1.747-0.648,2.617-0.961
	c0.891-0.331,1.624-0.851,2.441-1.261c0.792-0.45,1.508-1.05,2.267-1.566c0.707-0.578,1.371-1.238,2.04-1.834l0.007,0.845
	l-2.032-1.833c-0.732-0.546-1.504-1.04-2.255-1.566c-0.778-0.476-1.627-0.839-2.438-1.268c-0.822-0.407-1.721-0.626-2.579-0.952
	c-0.862-0.331-1.791-0.401-2.685-0.617c-0.896-0.245-1.827-0.176-2.744-0.268c-0.922-0.114-1.839,0.026-2.761,0.083
	c-0.93,0.022-1.832,0.219-2.732,0.438c-0.922,0.18-1.787,0.395-2.664,0.763l-1.321,0.482l-1.231,0.626
	c-0.844,0.385-1.632,0.875-2.386,1.42c-0.799,0.487-1.493,1.104-2.193,1.722c-0.737,0.576-1.321,1.31-1.957,1.992
	c-0.674,0.656-1.123,1.485-1.697,2.227c-0.544,0.757-0.929,1.619-1.404,2.425c-0.404,0.845-0.723,1.729-1.089,2.593
	c0.342-0.875,0.64-1.767,1.021-2.624c0.454-0.822,0.815-1.7,1.348-2.476c0.553-0.759,0.988-1.61,1.647-2.293
	c0.624-0.705,1.196-1.462,1.929-2.067c0.69-0.645,1.383-1.29,2.18-1.806c0.751-0.576,1.541-1.098,2.401-1.52l1.258-0.679
	l1.307-0.519c0.851-0.384,1.797-0.656,2.714-0.857c0.919-0.25,1.844-0.474,2.801-0.525c0.945-0.087,1.894-0.251,2.849-0.164
	c0.947,0.07,1.919-0.02,2.853,0.203c0.932,0.196,1.903,0.25,2.809,0.566c0.902,0.312,1.848,0.522,2.721,0.922
	c0.857,0.422,1.754,0.78,2.586,1.259c0.801,0.528,1.626,1.024,2.411,1.58l2.193,1.879l0.498,0.426l-0.491,0.418
	c-0.752,0.646-1.449,1.298-2.217,1.896c-0.815,0.525-1.572,1.125-2.433,1.586c-0.875,0.416-1.73,0.961-2.619,1.264
	c-0.915,0.296-1.714,0.704-2.721,0.915c-1.855,0.52-3.782,0.737-5.701,0.77c-0.957-0.005-1.92-0.065-2.87-0.174
	c-0.945-0.155-1.896-0.274-2.814-0.554c-0.937-0.208-1.83-0.554-2.726-0.889c-0.882-0.358-1.742-0.782-2.579-1.233
	c-1.659-0.942-3.2-2.08-4.571-3.397c-0.681-0.658-1.319-1.37-1.919-2.101c-0.563-0.765-1.163-1.5-1.619-2.335
	c-0.519-0.794-0.922-1.651-1.317-2.513C196.053,42.178,195.815,41.257,195.478,40.376"/>
<path fill="#20557D" d="M192.039,28.875c-0.284,0.746-0.482,1.524-0.837,2.245c-0.331,0.728-0.674,1.457-1.111,2.129
	c-0.804,1.39-1.849,2.631-2.983,3.764c-1.162,1.118-2.465,2.086-3.869,2.888c-1.418,0.767-2.914,1.43-4.493,1.813
	c-1.563,0.443-3.196,0.608-4.822,0.631c-1.626-0.023-3.267-0.2-4.841-0.641c-0.867-0.18-1.536-0.519-2.312-0.769
	c-0.752-0.253-1.484-0.715-2.231-1.069c-0.732-0.386-1.376-0.896-2.07-1.342c-0.652-0.499-1.258-1.063-1.887-1.598l-0.017-0.017
	l-0.444-0.458l0.456-0.386l1.87-1.593c0.664-0.472,1.368-0.893,2.052-1.338c0.706-0.407,1.47-0.709,2.2-1.065
	c0.742-0.339,1.546-0.517,2.312-0.78c0.771-0.266,1.596-0.31,2.388-0.474c0.794-0.189,1.617-0.112,2.421-0.167
	c0.813-0.073,1.616,0.069,2.42,0.144c0.809,0.046,1.598,0.24,2.376,0.453c0.777,0.173,1.581,0.404,2.3,0.731
	c0.742,0.269,1.47,0.598,2.175,1.021c0.728,0.36,1.395,0.804,2.032,1.293c0.677,0.439,1.258,0.989,1.844,1.536
	c0.617,0.513,1.102,1.157,1.629,1.755c0.556,0.578,0.924,1.302,1.393,1.944c0.444,0.661,0.751,1.403,1.134,2.1
	c0.322,0.727,0.572,1.485,0.86,2.222c-0.312-0.73-0.586-1.479-0.929-2.19c-0.401-0.683-0.73-1.409-1.193-2.051
	c-0.484-0.624-0.87-1.326-1.438-1.88c-0.541-0.574-1.037-1.193-1.661-1.677c-0.591-0.521-1.18-1.042-1.855-1.45
	c-0.644-0.46-1.31-0.875-2.019-1.196c-0.674-0.383-1.399-0.688-2.161-0.934c-0.742-0.31-1.47-0.487-2.25-0.637
	c-0.761-0.185-1.522-0.347-2.307-0.363c-0.78-0.048-1.556-0.165-2.331-0.066c-0.773,0.08-1.561,0.025-2.314,0.233
	c-0.754,0.184-1.538,0.242-2.262,0.526c-0.724,0.275-1.482,0.462-2.175,0.808c-0.683,0.363-1.396,0.668-2.052,1.074
	c-0.629,0.446-1.281,0.859-1.894,1.322l-1.709,1.549l0.008-0.845c0.009,0.01,0,0.002,0,0.002c0.574,0.513,1.125,1.063,1.723,1.554
	c0.634,0.433,1.239,0.944,1.903,1.319c0.688,0.346,1.297,0.787,2.054,1.067c0.732,0.264,1.503,0.666,2.205,0.815
	c1.492,0.468,3.047,0.686,4.609,0.758c1.563,0.027,3.14-0.08,4.666-0.462c1.544-0.319,3.012-0.917,4.421-1.622
	c1.392-0.741,2.701-1.646,3.878-2.711c1.154-1.079,2.223-2.273,3.063-3.623c0.457-0.657,0.815-1.366,1.168-2.08
	C191.507,30.385,191.731,29.611,192.039,28.875"/>
<path fill="#20557D" d="M207.587,94.097c0.159-0.609,0.818-1.055,1.423-1.093c1.183-0.078,2.326,0.881,2.567,2.017
	c0.263,1.238-0.047,2.104-1.033,2.898c-1.444,1.167-3.03,0.889-4.347-0.293c-1.688-1.515-1.43-3.901-0.657-5.942
	c0.268-0.709,0.681-1.408,1.145-2.003c0.491-0.63,0.784-1.127,1.238-1.79c0.178-0.256,0.241-0.52,0.3-0.786
	c-0.257,0.174-0.6,0.368-1.187,0.562c-2.521-0.33-0.874-9.206-0.03-8.234c0.293,0.335,0.752,0.594,1.222,0.795
	c0.171-1.46,0.388-2.917,0.527-4.379c0.097-1.009-0.062-2.026,0.459-2.953c0.428-0.765,1.139-1.237,1.942-1.547
	c0.326-0.125,3.747-1.471,3.844-1.171c-0.168-0.518-0.185-1.847,0.191-2.042c0.04,0.888,0.35,2.229,0.35,2.229
	s2.328,1.483,2.806,3.34c0.601,1.102,1.827,1.406,1.827,1.406s2.063,0.894,0.799,1.617c-1.267,0.721-1.248,1.887-2.347,0.189
	c-1.095-1.697-1.712-0.596-2.964-0.563c-0.679-0.135-1.511-0.615-2.06-1.456c-0.458-0.7-1.146-1.053-1.193,0.363
	c-0.019,0.59-0.158,0.958,0.055,1.552c0.18,0.498,0.466,0.957,0.772,1.386c1.095,1.522,2.735,3.268,2.851,5.254
	c0.081,1.337-0.654,2.635-1.481,3.626c-0.421,0.501-0.91,1.007-1.461,1.365c-0.96,0.628-2.128,0.848-3.118,1.432
	c-0.801,0.474-1.579,1.021-2.2,1.718c-1.106,1.241-1.522,2.82-1.137,4.48c0.061,0.675,0.652,1.156,1.215,1.442
	c1.227,0.621,2.859-0.093,3.077-1.588c0.128-0.877-0.395-2.024-1.22-2.406c-0.359-0.164-0.775-0.193-1.144-0.046
	c-0.473,0.191-0.775,0.568-0.705,1.088c0.064,0.433,0.351,0.73,0.8,0.754c1.002,0.052,0.967-0.74,0.967-0.74s0.047,1.167-1.09,1.063
	c-0.634-0.056-1.191-0.637-1.031-1.382C207.57,94.206,207.573,94.15,207.587,94.097"/>
<path fill="#D0D2D3" d="M235.43,97.934c0,0-4.027,4.68,0.787,4.68c4.817,0,8.592,0.396,4.378-4.68
	C237.443,94.14,237.179,96.398,235.43,97.934"/>
<path fill="none" stroke="#D0D2D3" stroke-width="0.5" stroke-linecap="round" stroke-linejoin="round" stroke-miterlimit="10" d="
	M252.841,86.381c0,0-10.306-0.427-14.343,12.857"/>
<path fill="none" stroke="#D0D2D3" stroke-width="0.5" stroke-linecap="round" stroke-linejoin="round" stroke-miterlimit="10" d="
	M219.566,83.509c0,0,6.375,4.614,13.812,6.506c7.437,1.892,2.976,9.543,3.187,12.091"/>
<path fill="none" stroke="#D0D2D3" stroke-width="0.5" stroke-linecap="round" stroke-linejoin="round" stroke-miterlimit="10" d="
	M229.854,79.97c0,0-0.449,5.161-4.688,6.194c-4.238,1.03-1.042-7.15-1.042-7.15"/>
<path fill="none" stroke="#D0D2D3" stroke-width="0.5" stroke-linecap="round" stroke-linejoin="round" stroke-miterlimit="10" d="
	M227.807,89.294c0,0,2.354,2.44,4.443,0.468"/>
<path fill="none" stroke="#D0D2D3" stroke-width="0.5" stroke-linecap="round" stroke-linejoin="round" stroke-miterlimit="10" d="
	M230.527,93.398c0,0-0.82,4.451,4.902,4.721"/>
<path fill="none" stroke="#D0D2D3" stroke-width="0.5" stroke-linecap="round" stroke-linejoin="round" stroke-miterlimit="10" d="
	M248.166,93.398c0,0-6.108,1.28-9.002,4.25"/>
<path fill="none" stroke="#D0D2D3" stroke-width="0.5" stroke-linecap="round" stroke-linejoin="round" stroke-miterlimit="10" d="
	M250.078,90.542c0,0-2.225,0.695-8.019,1.562"/>
<path fill="none" stroke="#D0D2D3" stroke-width="0.5" stroke-linecap="round" stroke-linejoin="round" stroke-miterlimit="10" d="
	M244.128,75.437c0,0,2.94,3.309-1.293,6.277c-4.233,2.966-6.126,8.375-2.215,11.095c0.854,0.59-0.498,2.354-0.498,2.354"/>
<path fill="none" stroke="#D0D2D3" stroke-width="0.5" stroke-linecap="round" stroke-linejoin="round" stroke-miterlimit="10" d="
	M236.271,86.585c0,0-6.643-4.549-2.451-11.064"/>
<path fill="none" stroke="#D0D2D3" stroke-width="0.5" stroke-linecap="round" stroke-linejoin="round" stroke-miterlimit="10" d="
	M232.598,80.526c0,0,4.115-2.917,2.782-4.665"/>
<path fill="none" stroke="#D0D2D3" stroke-width="0.5" stroke-linecap="round" stroke-linejoin="round" stroke-miterlimit="10" d="
	M229.622,81.619c0,0,1.421,3.959,5.259,3.773"/>
<path fill="none" stroke="#D0D2D3" stroke-width="0.5" stroke-linecap="round" stroke-linejoin="round" stroke-miterlimit="10" d="
	M226.991,87.773c0,0-4.172-0.356-5.891,1.312"/>
<path fill="none" stroke="#D0D2D3" stroke-width="0.5" stroke-linecap="round" stroke-linejoin="round" stroke-miterlimit="10" d="
	M241.443,75.473c0,0-2.189,4.482-2.641,5.237c-4.673,7.769-1.934,11.49-1.934,11.49"/>
<path fill="none" stroke="#D0D2D3" stroke-width="0.5" stroke-linecap="round" stroke-linejoin="round" stroke-miterlimit="10" d="
	M238.136,74.238c0,0-0.481,4.561,1.14,5.201"/>
<path fill="none" stroke="#D0D2D3" stroke-width="0.5" stroke-linecap="round" stroke-linejoin="round" stroke-miterlimit="10" d="
	M248.697,80.639c0,0-4.919,3.104-3.576,8.459"/>
<path fill="none" stroke="#D0D2D3" stroke-width="0.5" stroke-linecap="round" stroke-linejoin="round" stroke-miterlimit="10" d="
	M250.213,82.98c0,0-0.563,1.547-4.957,1.889"/>
<path fill="none" stroke="#D0D2D3" stroke-width="0.5" stroke-linecap="round" stroke-linejoin="round" stroke-miterlimit="10" d="
	M246.792,79.013c0,0-1.052,2.394,0,3.254"/>
<path fill="none" stroke="#D0D2D3" stroke-width="0.5" stroke-linecap="round" stroke-linejoin="round" stroke-miterlimit="10" d="
	M247.601,76.194c0,0-0.742,1.256-2.479,1.845"/>
<path fill="none" stroke="#D0D2D3" stroke-width="0.5" stroke-linecap="round" stroke-linejoin="round" stroke-miterlimit="10" d="
	M242.06,79.013c0,0,0.211,3.132,0.775,2.698"/>
<path fill="none" stroke="#D0D2D3" stroke-width="0.5" stroke-linecap="round" stroke-linejoin="round" stroke-miterlimit="10" d="
	M238.864,86.715c0,0,0.501,0.744,3.563-0.767c3.061-1.508-0.281-2.647,2.829-3.931"/>
<path fill="none" stroke="#D0D2D3" stroke-width="0.5" stroke-linecap="round" stroke-linejoin="round" stroke-miterlimit="10" d="
	M232.439,92.808c0,0,1.679,2.014-0.86,3.796"/>
<path fill="none" stroke="#D0D2D3" stroke-width="0.5" stroke-linecap="round" stroke-linejoin="round" stroke-miterlimit="10" d="
	M231.797,85.379c0,0-0.631,3.911-2.191,3.362"/>
<path fill="none" stroke="#D0D2D3" stroke-width="0.5" stroke-linecap="round" stroke-linejoin="round" stroke-miterlimit="10" d="
	M227.927,84.494c0,0,1.559-0.039,2.102-1.314"/>
<path fill="none" stroke="#D0D2D3" stroke-width="0.5" stroke-linecap="round" stroke-linejoin="round" stroke-miterlimit="10" d="
	M227.629,79.391c0,0-0.513,2.97,1.093,4.011"/>
<path fill="none" stroke="#D0D2D3" stroke-width="0.5" stroke-linecap="round" stroke-linejoin="round" stroke-miterlimit="10" d="
	M231.652,75.934c0,0-0.872,1.392,0.769,2.854"/>
<path fill="none" stroke="#D0D2D3" stroke-width="0.5" stroke-linecap="round" stroke-linejoin="round" stroke-miterlimit="10" d="
	M241.349,89.132c0,0-0.892,1.799-2.033,1.535"/>
<path fill="none" stroke="#D0D2D3" stroke-width="0.5" stroke-linecap="round" stroke-linejoin="round" stroke-miterlimit="10" d="
	M238.136,81.886c0,0,0.213,0.688,2.231-1.035"/>
<path fill="none" stroke="#D0D2D3" stroke-width="0.5" stroke-linecap="round" stroke-linejoin="round" stroke-miterlimit="10" d="
	M220.316,80.008c0,0,0.929,3.15,2.654,1.984"/>
<path fill="#20557D" d="M170.523,87.461l-2.368,2.203c0,0-1.683,1.968-4.307,1.728c-0.69-0.064-1.255-0.087-1.69-0.129
	c-1.235-0.118-1.458-0.377-0.541-2.074c3.248-5.397,7.895-2.455,8.803-1.802c0.104,0.075,0.161,0.118,0.161,0.118"/>
<path fill="#20557D" d="M162.143,90.773c0,0,0.345,1.586,2.009,1.76c1.661,0.174,3.468-1.74,4.789-2.607
	c1.318-0.863,0.882-0.271,1.881,0.425c1.003,0.695,1.093-2.596,1.093-2.596S167.092,84.831,162.143,90.773"/>
<path fill="#20557D" d="M196.471,78.601c0,0,2.2,0.965,3.13,0.835c1.676-0.24-4.804,1.943-5.142,0.469
	C194.116,78.429,196.471,78.601,196.471,78.601"/>
<path fill="#20557D" d="M174.301,87.945c0,0-2.9,6.168,0.393,8.215c3.29,2.049-0.857-4.049,1.721-7.017
	C178.991,86.174,174.301,87.945,174.301,87.945"/>
<path fill="#20557D" d="M176.495,85.097c0,0-2.898,6.168,0.392,8.215c3.291,2.048-0.855-4.049,1.721-7.017
	C181.185,83.326,176.495,85.097,176.495,85.097"/>
<path fill="#20557D" d="M190.391,81.158c0,0,6.689,1.292,6.404,5.157c-0.286,3.868-2.766-3.076-6.683-2.747
	C186.195,83.9,190.391,81.158,190.391,81.158"/>
<path fill="#20557D" d="M186.229,80.919c0,0,6.689,1.293,6.403,5.159c-0.288,3.868-2.766-3.076-6.683-2.748
	C182.033,83.662,186.229,80.919,186.229,80.919"/>
<path fill="#D0D2D3" d="M170.834,87.482c0,0-0.506-4.097,3.834-5.037c0,0-0.171-2.151,4.11-4.119
	c4.283-1.968,5.743-2.681,7.36-1.711c1.621,0.97,3.855-1.092,4.333,0.888c0,0,2.082-1.058,4.044-0.479
	c1.96,0.578,2.118,1.795,3.187,1.529c1.068-0.264-1.321,2.69-4.087,5.134c-6.101,5.182-18.463,9.381-23.094,7.382
	C168.987,88.235,170.834,87.482,170.834,87.482"/>
<path fill="#B8DAF2" d="M207.933,112.332h37.21c0,0,7.935,0.206,1.926,8.956l-11.845,20.636c0,0-1.836,4.512-7.058,4.512h-20.233
	h-1.353h-20.235c-5.22,0-7.056-4.512-7.056-4.512l-11.843-20.636c-6.011-8.75,1.924-8.956,1.924-8.956h37.21H207.933z"/>
<path fill="#20557D" d="M217.326,118.039c0.399,0.751,0.624,1.607,1.167,2.269l0.747,1.017c0.27,0.323,0.612,0.581,0.913,0.872
	c0.307,0.283,0.604,0.581,0.982,0.775l1.069,0.654c0.368,0.194,0.777,0.305,1.16,0.461c0.39,0.149,0.772,0.308,1.191,0.343
	l1.222,0.203c0.407,0.045,0.823-0.012,1.231-0.012c0.409-0.019,0.823,0.007,1.218-0.128l1.191-0.281
	c0.343-0.05,0.775-0.295,1.155-0.433c0.404-0.158,0.702-0.388,1.06-0.571c0.674-0.421,1.305-0.96,1.851-1.516l0.007,0.847
	l-0.002-0.003c-0.565-0.567-1.173-1.087-1.854-1.522c-0.688-0.413-1.416-0.769-2.191-1.014c-0.378-0.154-0.787-0.191-1.182-0.293
	c-0.395-0.116-0.806-0.089-1.213-0.141c-0.406-0.058-0.813,0-1.224,0.018c-0.412,0.002-0.813,0.084-1.218,0.174
	c-0.418,0.075-0.789,0.157-1.191,0.32c-0.411,0.128-0.799,0.282-1.151,0.479c-0.742,0.339-1.443,0.826-2.07,1.37
	c-0.336,0.255-0.605,0.579-0.894,0.882c-0.308,0.29-0.518,0.659-0.78,0.99c-0.481,0.694-0.853,1.456-1.165,2.248
	c0.265-0.809,0.591-1.599,1.038-2.331c0.245-0.348,0.439-0.74,0.732-1.052c0.279-0.329,0.534-0.681,0.863-0.957
	c0.614-0.605,1.297-1.144,2.075-1.557c0.38-0.235,0.771-0.419,1.165-0.566c0.376-0.182,0.825-0.318,1.238-0.414
	c0.421-0.121,0.847-0.232,1.286-0.262c0.435-0.049,0.872-0.13,1.314-0.096c0.438,0.023,0.886-0.025,1.321,0.072
	c0.43,0.082,0.882,0.102,1.305,0.242c0.86,0.217,1.686,0.559,2.478,0.975c0.784,0.438,1.498,0.978,2.174,1.579l0.003,0.005
	l0.463,0.433l-0.456,0.411c-0.69,0.626-1.395,1.156-2.198,1.598c-0.411,0.191-0.83,0.442-1.231,0.57
	c-0.426,0.127-0.757,0.312-1.263,0.387l-1.316,0.232c-0.433,0.113-0.882,0.065-1.323,0.062c-0.442-0.026-0.889,0.004-1.324-0.066
	l-1.29-0.293c-0.438-0.066-0.835-0.256-1.236-0.44c-0.395-0.188-0.813-0.328-1.185-0.553l-1.073-0.747
	c-0.378-0.222-0.669-0.548-0.971-0.86c-0.294-0.319-0.624-0.603-0.882-0.95l-0.707-1.091
	C217.851,119.676,217.681,118.814,217.326,118.039"/>
<path fill="#20557D" d="M201.841,131.637c0.468,0.889,0.73,1.9,1.366,2.686l0.882,1.207c0.316,0.381,0.719,0.69,1.073,1.038
	c0.364,0.336,0.714,0.695,1.163,0.922l1.262,0.785c0.436,0.231,0.922,0.361,1.374,0.548c0.461,0.18,0.914,0.374,1.411,0.416
	l1.448,0.251c0.485,0.052,0.979-0.01,1.466-0.01c0.487-0.021,0.979,0.01,1.446-0.142l1.419-0.331
	c0.423-0.06,0.922-0.345,1.378-0.506c0.478-0.185,0.839-0.459,1.262-0.676c0.809-0.499,1.561-1.14,2.223-1.799l0.007,0.849
	l-1.052-0.975l-1.166-0.832c-0.824-0.491-1.692-0.907-2.616-1.195c-0.451-0.18-0.938-0.223-1.406-0.341
	c-0.471-0.137-0.962-0.104-1.444-0.16c-0.482-0.066-0.967,0-1.454,0.028c-0.491,0.004-0.969,0.102-1.444,0.213
	c-0.493,0.09-0.94,0.193-1.413,0.385c-0.484,0.153-0.943,0.338-1.364,0.574c-0.879,0.406-1.706,0.988-2.446,1.636
	c-0.395,0.303-0.709,0.686-1.054,1.047c-0.362,0.343-0.607,0.785-0.917,1.175c-0.565,0.823-1,1.729-1.364,2.667
	c0.316-0.953,0.707-1.887,1.236-2.749c0.293-0.409,0.522-0.868,0.872-1.241c0.328-0.381,0.634-0.792,1.023-1.12
	c0.729-0.709,1.534-1.338,2.449-1.82c0.449-0.276,0.907-0.492,1.375-0.662c0.449-0.21,0.972-0.368,1.461-0.482
	c0.497-0.139,0.995-0.265,1.513-0.298c0.514-0.057,1.026-0.151,1.546-0.108c0.516,0.033,1.043-0.021,1.551,0.092
	c0.506,0.103,1.035,0.126,1.529,0.294c1.012,0.262,1.979,0.664,2.905,1.155c0.439,0.284,0.894,0.549,1.326,0.849l1.21,1.015
	l0.489,0.408l-0.482,0.438c-0.801,0.732-1.628,1.359-2.562,1.879c-0.482,0.223-0.967,0.518-1.442,0.674
	c-0.501,0.149-0.896,0.378-1.479,0.464l-1.546,0.278c-0.508,0.133-1.035,0.08-1.556,0.076c-0.518-0.028-1.042,0.009-1.553-0.073
	l-1.518-0.339c-0.518-0.073-0.985-0.297-1.458-0.506c-0.464-0.222-0.958-0.385-1.397-0.649l-1.27-0.872
	c-0.446-0.258-0.789-0.644-1.148-1.012c-0.345-0.371-0.737-0.705-1.042-1.111l-0.837-1.281
	C202.475,133.565,202.267,132.549,201.841,131.637"/>
<path fill="#20557D" d="M192.575,123.763c-0.354,0.775-0.524,1.639-1.03,2.338l-0.707,1.093c-0.255,0.345-0.589,0.628-0.882,0.95
	c-0.303,0.312-0.593,0.638-0.972,0.857l-1.073,0.749c-0.368,0.225-0.789,0.364-1.187,0.554c-0.396,0.182-0.794,0.373-1.233,0.439
	l-1.291,0.293c-0.435,0.068-0.879,0.038-1.323,0.064c-0.439,0.007-0.889,0.054-1.324-0.06l-1.316-0.231
	c-0.506-0.076-0.834-0.26-1.26-0.388c-0.401-0.13-0.822-0.378-1.233-0.572c-0.804-0.439-1.509-0.972-2.198-1.598l-0.457-0.411
	l0.466-0.431v-0.005c0.677-0.6,1.39-1.142,2.175-1.579c0.792-0.416,1.617-0.758,2.478-0.976c0.423-0.14,0.874-0.158,1.305-0.243
	c0.435-0.095,0.884-0.048,1.323-0.071c0.439-0.033,0.88,0.047,1.314,0.097c0.438,0.028,0.865,0.14,1.286,0.263
	c0.411,0.095,0.86,0.231,1.238,0.411c0.393,0.148,0.785,0.333,1.163,0.564c0.777,0.419,1.461,0.953,2.075,1.559
	c0.329,0.278,0.586,0.631,0.863,0.957c0.293,0.312,0.486,0.704,0.734,1.052c0.444,0.732,0.771,1.522,1.036,2.331
	c-0.313-0.79-0.684-1.554-1.166-2.246c-0.262-0.331-0.47-0.699-0.777-0.992c-0.291-0.303-0.561-0.625-0.896-0.88
	c-0.627-0.544-1.326-1.03-2.068-1.371c-0.354-0.193-0.742-0.35-1.154-0.478c-0.401-0.163-0.772-0.245-1.19-0.321
	c-0.404-0.09-0.807-0.17-1.218-0.175c-0.411-0.015-0.817-0.073-1.225-0.015c-0.406,0.048-0.82,0.024-1.212,0.138
	c-0.396,0.104-0.804,0.14-1.183,0.293c-0.775,0.246-1.503,0.601-2.188,1.017c-0.681,0.435-1.291,0.955-1.855,1.522l-0.003,0.002
	l0.008-0.849c0.546,0.556,1.179,1.097,1.851,1.518c0.356,0.185,0.654,0.411,1.059,0.569c0.383,0.14,0.813,0.386,1.158,0.433
	l1.189,0.284c0.395,0.132,0.809,0.108,1.217,0.127c0.412,0,0.828,0.055,1.234,0.01l1.22-0.203c0.421-0.033,0.804-0.194,1.191-0.343
	c0.383-0.153,0.792-0.268,1.16-0.461l1.071-0.652c0.375-0.194,0.673-0.491,0.98-0.775c0.301-0.293,0.646-0.551,0.912-0.872
	l0.75-1.019C191.951,125.37,192.176,124.513,192.575,123.763"/>
<path fill="#20557D" d="M206.339,116.698c-0.236,0.536-0.345,1.13-0.689,1.621c-0.301,0.518-0.636,1.019-1.081,1.426
	c-0.38,0.478-0.919,0.767-1.403,1.136c-0.258,0.159-0.549,0.264-0.82,0.398c-0.279,0.127-0.556,0.265-0.858,0.316
	c-0.596,0.163-1.198,0.293-1.822,0.271c-0.626,0.078-1.234-0.092-1.855-0.182c-0.431-0.071-0.589-0.208-0.896-0.308l-0.82-0.328
	c-0.272-0.118-0.537-0.354-0.807-0.531l-0.811-0.597l-0.494-0.366l0.501-0.481l0.005-0.004c0.479-0.42,0.99-0.795,1.544-1.095
	c0.563-0.288,1.144-0.521,1.751-0.665c0.605-0.139,1.228-0.219,1.844-0.199c0.612,0.015,1.231,0.088,1.813,0.271
	c0.27,0.064,0.624,0.183,0.865,0.328l0.782,0.396c0.544,0.208,0.964,0.74,1.435,1.091c0.456,0.393,0.729,0.944,1.095,1.402
	c0.175,0.237,0.243,0.537,0.368,0.802l0.334,0.809l-0.402-0.777c-0.145-0.249-0.236-0.533-0.426-0.753
	c-0.399-0.417-0.706-0.926-1.17-1.254c-0.491-0.296-0.839-0.734-1.42-0.905l-0.813-0.327c-0.276-0.133-0.484-0.169-0.79-0.223
	c-0.543-0.123-1.108-0.139-1.654-0.104c-0.553,0.028-1.092,0.149-1.609,0.316c-0.521,0.173-1.005,0.418-1.466,0.704
	c-0.449,0.301-0.851,0.653-1.225,1.037l-0.005,0.004l0.008-0.845l0.574,0.494c0.206,0.162,0.354,0.367,0.609,0.508l0.787,0.397
	c0.239,0.102,0.575,0.331,0.735,0.331c0.534,0.117,1.063,0.325,1.624,0.298c0.558,0.068,1.108-0.003,1.666-0.106
	c0.284-0.019,0.544-0.125,0.812-0.223c0.26-0.102,0.541-0.172,0.794-0.302c0.473-0.306,1.019-0.533,1.416-0.956
	c0.461-0.356,0.82-0.802,1.153-1.275C205.895,117.798,206.058,117.211,206.339,116.698"/>
<rect x="188.271" y="200.605" fill="#9ED1F1" width="16.88" height="7.503"/>
<rect x="212.767" y="203.729" fill="#9ED1F1" width="16.882" height="7.504"/>
<rect x="193.064" y="197.66" fill="#9ED1F1" width="1.702" height="5.89"/>
<rect x="195.898" y="195.462" fill="#9ED1F1" width="1.702" height="8.087"/>
<rect x="190.046" y="201.783" fill="#FFFFFF" width="2.834" height="3.507"/>
<rect x="195.334" y="201.783" fill="#FFFFFF" width="2.834" height="3.507"/>
<rect x="200.616" y="201.783" fill="#FFFFFF" width="2.835" height="3.507"/>
<rect x="186.985" y="206.212" fill="#D0D2D3" width="47.709" height="5.91"/>
<rect x="185.288" y="208.956" fill="#9ED1F1" width="51.106" height="6.332"/>
<path fill="#20557D" d="M194.244,212.196l-21.771-1.295c0,0-4.786-1.162-2.933,1.554c1.853,2.719,19.453,11.265,19.453,11.265
	l5.25,2.072h39.37c0,0,3.862,0.908,5.713-2.461c1.854-3.367,6.023-11.522,6.023-11.522s0.927-1.168-5.25,0
	C233.924,212.971,194.244,212.196,194.244,212.196"/>
<path fill="none" stroke="#FFFFFF" stroke-width="0.25" stroke-miterlimit="10" d="M244.875,213.51
	c-0.761-0.023-2.073,0.096-4.307,0.518c-6.219,1.166-46.171,0.387-46.171,0.387l-21.921-1.293c0,0-1.882-0.457-2.837-0.135"/>
</svg>
